# xmcd
#
# Track frame offsets:
#	150
#	20067
#	38718
#	52749
#	71181
#	94736
#
# Disc length: 1505 seconds
#
# Revision: 0
# Processed by: cddbd v1.5.2PL0 Copyright (c) Steve Scherf et al.
# Submitted via: EasyCDDAExtractor 9.0.0.1
#
DISCID=4905df06
DTITLE=Trance the MC - Trance Sampker
DYEAR=2006
DGENRE=Hip-Hop
TTITLE0=Newism
TTITLE1=KISS (Keep it Simple Stupid) feat. Tha Supa Kids
TTITLE2=Bear Down
TTITLE3=2 Big 4 My Britches
TTITLE4=Stand
TTITLE5=When I Grab tha Mic
EXTD=
EXTT0=
EXTT1=
EXTT2=
EXTT3=
EXTT4=
EXTT5=
PLAYORDER=
